<?xml version="1.0" encoding="utf-8"?>
<!-- Generator: Adobe Illustrator 24.0.3, SVG Export Plug-In . SVG Version: 6.00 Build 0)  -->
<svg version="1.1" id="Layer_1" xmlns="http://www.w3.org/2000/svg" xmlns:xlink="http://www.w3.org/1999/xlink" x="0px" y="0px"
	 viewBox="0 0 203 49.7" style="enable-background:new 0 0 203 49.7;" xml:space="preserve">
<style type="text/css">
	.st0{fill:#10CFC9;}
	.st1{fill:#003A5D;}
</style>
<path class="st0" d="M49.7,25.9c0,0.8-0.6,1.4-1.4,1.4h-2.1c-0.8,0-1.4-0.6-1.4-1.4v-2.1c0-0.8,0.6-1.4,1.4-1.4h2.1
	c0.8,0,1.4,0.6,1.4,1.4V25.9z"/>
<path class="st0" d="M5,25.9c0,0.8-0.6,1.4-1.4,1.4H1.4c-0.8,0-1.4-0.6-1.4-1.4v-2.1c0-0.8,0.6-1.4,1.4-1.4h2.1
	C4.3,22.3,5,23,5,23.8V25.9z"/>
<path class="st0" d="M23.8,49.7c-0.8,0-1.4-0.6-1.4-1.4v-2.1c0-0.8,0.6-1.4,1.4-1.4h2.1c0.8,0,1.4,0.6,1.4,1.4v2.1
	c0,0.8-0.6,1.4-1.4,1.4H23.8z"/>
<path class="st0" d="M23.8,5c-0.8,0-1.4-0.6-1.4-1.4V1.4C22.4,0.6,23,0,23.8,0h2.1c0.8,0,1.4,0.6,1.4,1.4v2.1c0,0.8-0.6,1.4-1.4,1.4
	H23.8z"/>
<path class="st0" d="M41.7,43c-0.6,0.6-1.5,0.6-2,0l-1.5-1.5c-0.6-0.6-0.6-1.5,0-2l1.5-1.5c0.6-0.6,1.5-0.6,2,0l1.5,1.5
	c0.6,0.6,0.6,1.5,0,2L41.7,43z"/>
<path class="st0" d="M10.1,11.4c-0.6,0.6-1.5,0.6-2,0L6.6,9.9C6,9.3,6,8.4,6.6,7.9l1.5-1.5c0.6-0.6,1.5-0.6,2,0l1.5,1.5
	c0.6,0.6,0.6,1.5,0,2L10.1,11.4z"/>
<path class="st0" d="M6.4,41.8c-0.6-0.6-0.6-1.5,0-2l1.5-1.5c0.6-0.6,1.5-0.6,2,0l1.5,1.5c0.6,0.6,0.6,1.5,0,2l-1.5,1.5
	c-0.6,0.6-1.5,0.6-2,0L6.4,41.8z"/>
<path class="st0" d="M38.2,10c-0.6-0.6-0.6-1.5,0-2l1.5-1.5c0.6-0.6,1.5-0.6,2,0L43.2,8c0.6,0.6,0.6,1.5,0,2l-1.5,1.5
	c-0.6,0.6-1.5,0.6-2,0L38.2,10z"/>
<path class="st0" d="M38.3,22.3h-6.1c-0.8,0-1-0.5-0.4-1l4.3-4.3c0.6-0.6,0.6-1.5,0-2l-1.5-1.5c-0.6-0.6-1.5-0.6-2,0l-4.3,4.3
	c-0.6,0.6-1,0.4-1-0.4v-6.1c0-0.8-0.6-1.4-1.4-1.4h-2.1c-0.8,0-1.4,0.6-1.4,1.4v6.1c0,0.8-0.5,1-1,0.4l-4.3-4.3
	c-0.6-0.6-1.5-0.6-2,0L13.5,15c-0.6,0.6-0.6,1.5,0,2l4.3,4.3c0.6,0.6,0.4,1-0.4,1h-6.1c-0.8,0-1.4,0.6-1.4,1.4v2.1
	c0,0.8,0.6,1.4,1.4,1.4h6.1c0.8,0,1,0.5,0.4,1l-4.3,4.3c-0.6,0.6-0.6,1.5,0,2l1.5,1.5c0.6,0.6,1.5,0.6,2,0l4.3-4.3
	c0.6-0.6,1-0.4,1,0.4v6.1c0,0.8,0.6,1.4,1.4,1.4h2.1c0.8,0,1.4-0.6,1.4-1.4v-6.1c0-0.8,0.5-1,1-0.4l4.3,4.3c0.6,0.6,1.5,0.6,2,0
	l1.5-1.5c0.6-0.6,0.6-1.5,0-2l-4.3-4.3c-0.6-0.6-0.4-1,0.4-1h6.1c0.8,0,1.4-0.6,1.4-1.4v-2.1C39.7,23,39.1,22.3,38.3,22.3
	 M27.3,25.9c0,0.8-0.6,1.4-1.4,1.4h-2.1c-0.8,0-1.4-0.6-1.4-1.4v-2.1c0-0.8,0.6-1.4,1.4-1.4h2.1c0.8,0,1.4,0.6,1.4,1.4V25.9z"/>
<path class="st1" d="M128.6,27.7c0,2.5-2.2,4.6-5,4.6s-5-2.1-5-4.6V13.8c0-0.8-0.6-1.4-1.4-1.4h-2.1c-0.8,0-1.4,0.6-1.4,1.4v13.9
	c0,5.3,4.5,9.5,9.9,9.5s9.9-4.3,9.9-9.5V13.8c0-0.8-0.6-1.4-1.4-1.4h-2.1c-0.8,0-1.4,0.6-1.4,1.4V27.7z"/>
<path class="st1" d="M163.3,19.2c-0.4-3.9-3.8-6.7-7.7-6.7h-10.8c-0.8,0-1.4,0.6-1.4,1.4l0,22.1c0,0.8,0.6,1.4,1.4,1.4h10.8
	c3.7,0,6.9-2.6,7.5-6.2c0.4-2.1-0.2-4.1-1.3-5.6c-0.3-0.4-0.3-0.9,0-1.3C163,22.8,163.5,21,163.3,19.2 M158.3,30.6
	c-0.3,1-1.3,1.7-2.4,1.7h-6.7c-0.4,0-0.7-0.3-0.7-0.7v-4.3c0,0,0,0,0,0h7.4C157.5,27.3,158.8,28.9,158.3,30.6 M155.9,22.3h-7.4
	c0,0,0,0,0,0v-4.3c0-0.4,0.3-0.7,0.7-0.7h6.7c1.1,0,2.1,0.7,2.4,1.7C158.8,20.8,157.5,22.3,155.9,22.3"/>
<path class="st1" d="M189.6,12.4c-0.8,0-1.4,0.6-1.4,1.4V16c0,0.8,0.6,1.4,1.4,1.4h2.1c0.8,0,1.4,0.6,1.4,1.4v17
	c0,0.8,0.6,1.4,1.4,1.4h2.1c0.8,0,1.4-0.6,1.4-1.4v-17c0-0.8,0.6-1.4,1.4-1.4h2.1c0.8,0,1.4-0.6,1.4-1.4v-2.1c0-0.8-0.6-1.4-1.4-1.4
	H189.6z"/>
<path class="st1" d="M174.7,37.2c-0.8,0-1.4-0.6-1.4-1.4v-22c0-0.8,0.6-1.4,1.4-1.4h2.1c0.8,0,1.4,0.6,1.4,1.4v22
	c0,0.8-0.6,1.4-1.4,1.4H174.7z"/>
<path class="st1" d="M60.6,37.2c-0.8,0-1.4-0.6-1.4-1.4v-22c0-0.8,0.6-1.4,1.4-1.4h2.1c0.8,0,1.4,0.6,1.4,1.4v22
	c0,0.8-0.6,1.4-1.4,1.4H60.6z"/>
<path class="st1" d="M87.9,24.9L78.2,13c-0.3-0.3-0.7-0.5-1.1-0.5h-1.6c-0.8,0-1.4,0.6-1.4,1.4v22c0,0.8,0.6,1.4,1.4,1.4h2.1
	c0.8,0,1.4-0.6,1.4-1.4V24c0-0.7,0.8-1,1.3-0.5l7.6,8.9c0.6,0.7,1.6,0.7,2.2,0l7.6-8.9c0.4-0.5,1.3-0.2,1.3,0.5v11.8
	c0,0.8,0.6,1.4,1.4,1.4h2.1c0.8,0,1.4-0.6,1.4-1.4v-22c0-0.8-0.6-1.4-1.4-1.4h-1.6c-0.4,0-0.8,0.2-1.1,0.5l-9.6,11.9
	C89.5,25.6,88.4,25.6,87.9,24.9"/>
</svg>
