<svg id="Layer_1" data-name="Layer 1" xmlns="http://www.w3.org/2000/svg" viewBox="0 0 875.16 802.29"><defs><style>.cls-1{fill:#fff}.cls-2{fill:#ffcc04}.cls-3{fill:#ffcd05}</style></defs><title>Artboard 10</title><path class="cls-1" d="M768.28 409.36a17.15 17.15 0 0 0-16.18-12.76H650.5a16.82 16.82 0 0 0-8.33 3.13c-59.95 33-102.73 41-178.47 44-9-23.35-27.36-41.75-47.15-54.93a174.29 174.29 0 0 0-27.1-14.85A58.11 58.11 0 0 0 402 338.28c0-32-26.31-58.58-58.35-58.58h-.06c-32 0-58.35 26.57-58.35 58.57a58.08 58.08 0 0 0 12.5 35.66 174.2 174.2 0 0 0-27.09 14.85c-21.13 14.06-40.51 34-48.71 59.62-17.32 4.23-31.69 16.12-43 30.22-4-17.1-9.19-32.63-16.94-45.82-12.4-21.1-33.76-36.18-60.17-36.18S50.14 415.25 41 432.76c-21.66 41.45 12.49 99.42 34.76 120.55 19.64 18.69 43.24 35.5 65.9 50.77 0 5.92-4 7.26-6.51 9.12-8.82-.13-16.9 7.84-16.9 16.67s8.11 16.8 16.9 16.67c13.91 0 26-8.17 32.56-18a53.37 53.37 0 0 0 8.08-21.63 200.75 200.75 0 0 0 28.65 30.22 208.23 208.23 0 0 0 49.78 31.72 152.38 152.38 0 0 0-26.74 36.85 32.06 32.06 0 0 0 28.46 46.82h190.13a32.06 32.06 0 0 0 28.46-46.82 152.12 152.12 0 0 0-28.09-38.22c39.71-16.46 85.79-45 134-93.61 64.81-65.47 134.51-123.45 179.25-145.81a17.18 17.18 0 0 0 8.59-18.7zM98.65 529.09c-19.41-18.43-28.17-36.31-30.22-49.2-5.45-34.35 18.08-50 33.35-50 15.27 0 23.08 5.47 31.52 19.8 15.4 33.31 20 65 18.49 96.84 0 9 2.05 18.3 5.47 27.61-21.07-14.31-42.36-29.62-58.61-45.05zm244.9-215.85a24.77 24.77 0 0 1 25 25c0 14-11 24.75-25 24.75s-25-10.74-25-24.75a24.77 24.77 0 0 1 25-25zm-54.21 103.38a106.77 106.77 0 0 1 20.28-10.05c25.92-10 54.93-8.73 79.27 4.69 3 1.66 6 3.44 8.84 5.36 11.76 7.82 22 17.42 28.92 27.87-52.13.56-108.56-.84-167 1.05 6.93-10.85 17.54-20.81 29.69-28.92zm156.73 303.87H255.94a117.66 117.66 0 0 1 32.82-39.43 216.44 216.44 0 0 0 29.78 5.56s36.67 8.51 92.8-7a117.4 117.4 0 0 1 34.73 40.87zM559 548.08c-47.59 39.74-97.9 75.48-148.15 93.8-22.53 8.21-45.05 12.94-67.31 12.94a182 182 0 0 1-58.7-9.55 176.88 176.88 0 0 1-58.52-33.4c-27.52-23.71-40.41-40.51-41.16-65.35 0-42.46 20.45-65.58 50-66.66 81.47-4.88 165.45-.23 237.34-3.12 70.4-3.06 133.83-13.48 183.42-46.86h40.38c-42.3 32.36-87.79 76.84-137.3 118.2z"/><path class="cls-2" d="M714.59 31.2a136.36 136.36 0 0 0-136 136.12c0 23.84 11 55.06 33.53 95.43 14.07 25.19 32.37 53.5 54.37 84.15a59.1 59.1 0 0 0 96.14.1c15.06-20.74 36.73-52.15 54.59-84.14 22.47-40.25 33.39-71.5 33.39-95.54C850.6 92.26 789.59 31.2 714.59 31.2zm23.19 297.89a28.8 28.8 0 0 1-23.19 12 28.73 28.73 0 0 1-23.19-12c-30.56-42.56-82.2-120.27-82.2-161.77 0-58 47.42-105.5 105.39-105.5A105.53 105.53 0 0 1 820 167.32c0 41.84-51.31 119.21-82.22 161.77z"/><path class="cls-3" d="M714.59 112.78a56.94 56.94 0 1 0 56.93 56.93 57 57 0 0 0-56.93-56.93z"/></svg>